<?xml version="1.0" encoding="UTF-8"?> <svg xmlns="http://www.w3.org/2000/svg" width="1331" height="620" viewBox="0 0 1331 620" fill="none"> <path fill-rule="evenodd" clip-rule="evenodd" d="M566.066 22.1901C567.693 22.271 569.262 24.4375 570.846 25.6501C569.887 27.0244 569.146 28.7059 567.94 29.7406C563.683 33.3461 558.961 36.321 554.98 40.266C551.493 43.7583 547.947 46.8464 551.26 54.1544C554.239 60.7671 549.299 67.8164 542.208 69.7243C538.024 70.8398 536.89 72.9094 537.951 77.5658C538.401 79.6029 537.152 82.109 536.672 84.421C535.118 83.2893 533.592 82.012 531.936 81.0742C530.323 80.185 528.565 79.6514 526.85 78.9562C527.359 80.7024 528.187 82.4323 528.303 84.227C528.405 85.7145 528.1 88.0911 527.243 88.6409C525.136 90.0151 522.651 90.6619 520.268 91.3895C507.846 95.2051 495.481 99.3279 482.942 102.562C474.558 104.712 472.335 113.087 468.862 119.376C465.361 125.747 463.864 127.202 456.788 124.469C442.259 118.859 432.349 110.904 429.952 92.5697C429.255 87.2666 422.992 82.982 431.783 79.7969C432.248 79.6191 432.422 78.4227 432.727 77.7113C431.638 77.3071 430.083 76.143 429.487 76.5957C423.472 80.9449 422.324 77.7921 421.147 71.438C420.551 68.1398 417.093 63.7097 414.275 63.0145C403.581 60.3953 392.175 56.2239 381.932 58.2449C374.565 59.7162 372.865 53.6208 368.114 52.9256C368.55 51.9555 368.782 50.5813 369.494 50.0801C379.767 42.7721 389.952 35.2863 400.486 28.431C405.615 25.1166 411.383 23.0632 415.321 21.1554C420.769 22.4326 423.98 23.4836 427.206 23.8554C429.996 24.1788 435.284 24.1141 435.343 23.5968C436.665 12.457 446.487 15.0115 451.906 11.4869C470.243 -0.380478 489.901 -4.3093 510.417 5.73107C513.033 6.99217 516.505 6.76581 519.44 6.2646C527.78 4.84181 533.795 4.89032 537.166 16.693C541.278 31.1311 544.867 31.3251 557.842 23.9848C560.269 22.659 563.349 22.0608 566.066 22.1901ZM1086.66 397.451C1089.87 391.355 1093.62 385.098 1094.87 378.373C1095.92 372.665 1094.31 366.085 1092.87 360.2C1092 356.61 1090.75 354.298 1086.4 359.246C1080.34 366.133 1071.68 370.111 1064.48 375.85C1062.54 377.402 1060.51 381.056 1060.79 383.401C1062.04 393.247 1069.78 398.89 1082.41 399.051C1083.05 398.857 1085.95 398.857 1086.66 397.451ZM826.379 440.506C821.991 444.468 817.647 448.493 813.506 452.762C811.879 454.459 809.873 456.755 809.67 458.97C809.132 464.726 809.481 470.595 809.481 476.399C808.726 476.771 807.97 477.143 807.229 477.515C810.004 482.414 812.067 490.514 815.714 491.533C823.037 493.586 824.025 484.855 825.856 478.905C828.108 471.517 830.564 464.193 832.423 456.691C833.499 452.358 833.876 447.717 833.891 443.223C833.906 441.299 832.162 439.391 831.203 437.467C829.59 438.469 827.789 439.229 826.379 440.506ZM498.634 403.271C484.409 397.063 469.502 392.778 455.394 386.279C451.296 384.403 449.03 384.177 445.644 386.489C444.598 387.216 442.695 386.376 441.169 386.263C442.084 385.066 442.796 383.32 443.959 382.77C450.294 379.811 450.846 377.37 445.775 371.097C439.992 363.902 435.052 357.273 425.317 358.599C423.69 358.825 421.481 357.095 420.072 355.64C409.741 345.05 399.178 335.285 383.675 337.516C381.786 337.791 379.142 337.597 377.907 336.352C373.388 331.873 371.543 335.139 369.392 339.052C368.651 340.41 367.199 341.267 366.065 342.35C365.716 340.669 364.787 338.793 365.15 337.322C366.545 331.776 365.411 330.24 360.689 333.247C352.727 338.34 347.54 346.521 334.841 343.724C322.578 341.024 319.628 342.738 320.82 327.395C321.633 316.95 320.645 315.834 311.143 316.255C303.283 316.61 301.699 314.379 303.907 305.697C304.474 303.531 305.782 301.639 306.581 299.521C308.31 294.978 306.915 292.181 302.469 292.278C298.154 292.375 294.405 291.987 291.848 298.68C289.392 305.099 282.273 306.586 276.054 303.013C267.423 298.05 263.733 282.447 267.481 268.349C269.051 262.448 280.34 256.918 288.39 257.274C292.08 257.452 295.96 256.239 299.548 254.897C308.775 251.437 317.754 254.994 322.869 263.757C325.164 267.654 328.68 270.677 331.644 274.089C331.354 269.012 331.194 263.886 330.744 258.81C330.627 257.532 329.189 256.271 329.291 255.107C329.552 252.245 329.523 248.268 331.121 246.845C339.229 239.618 348.542 234.509 351.506 221.348C354.238 209.271 369.465 209.093 373.592 196.757C374.391 194.396 382.28 191.89 383.355 193.167C391.303 202.529 398.307 192.537 405.629 192.521C407.213 192.521 408.811 189.53 410.395 187.929C408.753 187.379 407.053 186.927 405.426 186.247C400.965 184.453 395.008 185.423 393.831 177.517C393.628 176.207 389.313 175.189 386.843 174.93C384.256 174.639 381.583 175.415 378.953 175.738C381.394 173.491 383.573 170.112 386.363 169.303C389.516 168.366 394.456 168.301 396.389 170.403C399.745 174.008 401.765 172.893 404.859 170.969C408.448 168.737 412.313 167.024 416.091 165.229C417.486 164.566 419.011 164.34 420.479 163.919C420.145 165.827 419.898 167.767 419.447 169.643C418.677 172.779 417.805 175.916 416.948 179.036C422.629 179.247 428.281 179.522 433.948 179.441C434.137 179.441 434.892 174.687 434.355 174.38C428.005 170.742 420.769 167.978 426.407 157.323C426.567 157.032 424.213 155.092 422.992 153.992C415.146 146.911 406.952 140.233 399.556 132.618C395.299 128.22 392.684 123.629 386.755 130.565C385.201 132.408 377.297 131.486 376.614 129.756C371.863 117.485 361.285 119.085 352.872 117.194C344.895 115.399 339.796 122.141 342.266 130.775C344.372 138.083 352.611 145.552 338.125 147.072C338.372 149.142 338.909 151.244 338.778 153.281C338.575 156.11 337.878 158.891 337.384 161.672C335.19 160.314 332.182 159.554 330.918 157.501C326.298 149.869 320.413 146.442 312.044 144.873C302.164 143.014 292.632 138.374 283.232 134.17C276.78 131.276 276.693 125.633 282.055 121.608C288.39 116.903 296.352 114.623 302.193 109.368C309.676 102.626 315.4 116.24 322.549 109.983C324.176 108.56 328.332 110.662 331.339 111.131C328.274 109.013 325.28 106.749 322.128 104.793C319.527 103.192 316.737 101.947 314.02 100.557C316.737 100.217 319.643 100.395 322.098 99.3603C324.699 98.2285 329.131 95.1404 328.884 94.2512C327.838 90.4032 326.065 86.7169 331.601 86.7654C337.035 86.8139 346.872 87.3313 347.133 89.1421C348.426 97.2908 350.024 98.4549 355.662 93.0871C356.447 92.3595 358.553 93.4104 360.064 93.6044C359.44 95.0757 359.135 97.2746 358.103 97.8566C354.209 100.055 350.054 101.624 346.072 103.58C344.736 104.227 343.602 105.342 342.367 106.264C343.573 107.169 344.663 108.608 345.956 108.899C355.168 110.953 364.365 113.055 373.635 114.574C379.055 115.464 384.605 115.383 390.097 115.609C391.216 115.658 392.349 115.173 393.483 114.93C392.887 113.346 392.524 111.567 391.623 110.241C389.879 107.719 387.831 105.456 385.898 103.095C388.964 103.71 392.03 104.421 395.11 104.922C396.65 105.181 398.481 105.601 399.803 104.971C401.518 104.146 402.869 102.319 404.365 100.929C403.145 100.039 401.823 99.2471 400.689 98.2123C394.006 92.2463 383.05 93.6368 379.113 82.6748C378.764 81.6563 376.076 81.721 374.507 81.1551C365.528 77.8568 356.665 73.9764 347.54 71.341C336.846 68.2206 325.774 66.717 316.083 74.7687C312.48 77.7759 311.245 77.1777 310.228 72.8609C308.746 66.5068 304.721 68.1559 301.481 70.1123C299.011 71.6159 297.267 74.5423 295.19 76.8382C297.543 79.1179 299.737 81.6401 302.324 83.4994C303.544 84.3886 305.622 83.6934 307.162 84.2432C309.283 84.9869 311.259 86.2318 313.308 87.2827C312.102 88.9157 311.158 91.4056 309.617 91.9392C307.714 92.6344 305.273 92.02 303.181 91.4379C295.422 89.2552 288.579 85.2618 283.232 78.3742C283.159 78.2933 279.686 80.379 279.599 81.6078C279.396 84.2432 281.299 87.3313 280.616 89.5948C279.904 91.9553 275.851 95.4961 275.531 95.2536C272.363 92.505 269.981 87.1049 266.74 86.442C263.588 85.8115 267.191 96.4339 259.679 95.3829C253.562 94.5099 247.285 95.0434 241.096 94.72C240.122 94.6554 239.192 93.2973 238.248 92.5212C239.032 91.5835 239.672 90.1284 240.602 89.805C242.955 89.0289 245.513 88.9804 247.881 88.2367C249.319 87.8163 250.554 86.6037 251.862 85.7468C250.525 84.4048 249.378 82.6102 247.823 81.7371C240.761 77.8244 236.62 71.1309 235.487 61.7696C235.313 60.3953 234.15 58.1318 233.308 58.0509C228.702 57.5497 224.023 57.5173 219.374 57.4527C215.93 57.4041 212.385 58.1479 209.029 57.5335C200.994 56.0784 193.075 53.1035 185.055 52.6508C181.422 52.4406 177.586 56.8383 173.852 59.1341C177.485 59.2635 181.117 59.409 184.75 59.4575C185.563 59.4575 186.421 58.8108 187.176 58.9563C188.687 59.2797 190.14 59.9426 191.622 60.4438C190.46 61.8504 189.443 64.2756 188.106 64.5019C182.425 65.4559 176.642 66.329 170.932 66.1349C165.658 65.9571 162.301 69.029 162.577 73.6369C162.708 75.9005 168.011 78.358 171.31 79.6029C173.431 80.3952 176.642 79.9748 178.502 78.6328C183.82 74.7848 186.885 77.5011 189.704 82.206C190.779 84.0006 191.84 85.8115 192.901 87.59C190.707 87.7678 188.455 88.2852 186.275 88.075C171.266 86.5875 156.213 83.1276 141.32 83.8713C127.837 84.5504 114.673 88.2528 100.783 86.0378C84.8873 83.5156 68.1927 85.5204 52.8203 81.1712C39.2351 77.3717 28.1199 81.9473 16.2201 85.6013C12.5877 86.7007 9.3912 89.708 5.99126 91.8422C9.42026 93.2164 12.8638 94.5745 16.2782 95.965C17.0629 96.2722 17.9782 96.4662 18.5158 97.0644C19.3585 97.9698 19.9107 99.1825 20.5936 100.25C19.3149 100.912 18.0363 102.125 16.7723 102.125C15.2031 102.109 13.6048 100.476 12.0937 100.621C8.15618 100.977 4.2477 101.883 0.353751 102.739C0.106747 102.788 -0.096667 104.954 0.0486295 105.019C3.73916 106.523 7.41516 108.398 11.251 109.126C14.8398 109.821 18.6321 109.287 22.3226 109.271C18.7047 110.759 14.8398 111.761 11.5561 113.879C9.04248 115.512 7.24081 118.536 5.13401 120.945C7.76388 123.467 10.539 128.301 12.9655 128.075C21.1893 127.347 27.4661 133.119 34.9053 134.51C29.0643 138.261 23.238 142.028 17.397 145.746C16.6706 146.199 15.7552 146.328 15.1595 146.911C14.2732 147.767 13.6048 148.867 12.8347 149.885C13.968 150.144 15.1885 150.775 16.2637 150.581C28.0182 148.236 38.1454 137.953 51.2366 141.672C52.0212 141.898 53.9682 139.586 54.4622 138.067C56.104 133.022 59.6057 129.368 64.2116 128.511C65.0107 128.366 65.868 128.091 66.5218 127.541C75.2105 120.508 84.4369 123.16 93.5324 125.86C103.601 128.835 114.368 129.013 121.604 140.67C124.263 144.938 129.58 147.137 130.263 153.863C130.467 155.738 133.78 157.242 135.654 158.907C135.915 156.919 135.872 154.784 136.555 153.006C136.816 152.343 139.504 151.907 139.911 152.456C144.27 158.164 147.321 166.361 152.755 169.513C163.856 175.9 165.323 185.342 164.19 196.369C161.488 215.318 172.472 225.6 182.657 236.417C186.406 240.394 190.591 244.21 193.264 249.012C199.555 260.297 205.571 271.728 214.492 280.766C216.134 282.447 218.676 283.013 220.827 284.097C219.969 281.995 219.388 279.715 218.27 277.839C215.538 273.28 212.458 268.979 209.784 264.371C209.116 263.224 209.508 261.3 209.421 259.731C210.525 260.119 211.993 260.168 212.705 261.009C220.144 269.578 231.056 277.031 233.947 287.249C238.233 302.415 249.319 305.6 258.575 311.825C263.864 315.366 270.693 316.384 278.219 315.301C284.118 314.46 290.671 323.045 297.5 325.471C303.762 327.669 308.412 329.626 311.317 337.176C314.543 345.551 328.244 354.072 332.022 350.79C340.043 343.789 341.263 351.728 343.181 356.4C346.842 365.26 343.748 373.425 337.166 378.243C327.126 385.616 335.32 398.114 329.596 406.343C329.392 406.618 331.063 408.332 331.717 409.464C335.262 415.511 339.214 421.347 342.237 427.717C347.424 438.696 352.03 449.771 363.421 454.961C371.485 458.663 373.286 466.311 372.24 475.543C369.916 496.238 368.085 516.998 360.689 536.529C359.469 539.746 359.73 543.642 359.411 547.264C358.771 554.912 358.641 562.624 357.478 570.158C356.505 576.512 352.669 582.737 352.989 588.816C354.238 611.241 366.835 623.545 385.012 619.099C386.189 618.808 387.278 618.096 388.397 617.563C387.54 616.754 386.755 615.881 385.869 615.138C373.417 604.742 373.519 604.871 384.823 592.163C386.494 590.287 387.38 584.16 387.061 583.998C381.612 581.346 384.765 579.261 386.552 575.849C388.993 571.128 399.658 569.657 392.233 560.36C392.117 560.231 393.425 557.951 394.224 557.806C401.779 556.464 406.545 546.795 415.393 549.156C416.469 549.431 418.793 547.636 419.229 546.294C420.624 541.702 420.13 535.3 422.818 532.551C425.811 529.512 431.579 530.061 435.909 528.331C437.638 527.652 438.801 525.162 440.152 523.416C443.537 519.002 446.966 514.605 450.235 510.11C452.052 507.636 455.234 504.726 455.001 502.333C453.548 487.264 463.966 484.564 472.713 482.883C482.317 481.024 487.359 473.732 488.565 466.003C491.049 450.013 495.612 436.27 504.852 423.287C511.594 413.732 509.037 407.798 498.634 403.271ZM1328.55 114.688C1327.04 115.076 1325.5 115.431 1324.02 115.884C1316.87 118.067 1309.82 120.686 1302.59 122.335C1295.82 123.871 1288.89 124.954 1281.99 125.197C1270.43 125.569 1269.53 126.264 1266.15 139.004C1262.57 152.489 1250.34 156.854 1242.35 165.682C1242.06 165.989 1240.07 165.213 1240.01 164.792C1239.3 157.808 1236.71 149.885 1238.8 144.097C1240.74 138.73 1247.72 135.625 1252.53 131.567C1253.17 131.017 1254.15 130.92 1254.73 130.322C1256.85 128.172 1258.85 125.924 1260.9 123.693C1255.79 125.245 1254.19 113.022 1247.49 119.716C1243.83 123.386 1239.54 126.442 1235.13 128.867C1232.02 130.597 1228.25 131.422 1224.77 131.551C1219.16 131.745 1213.35 131.89 1207.96 130.484C1191.38 126.135 1179.91 137.598 1167.32 145.73C1166.07 146.555 1165.25 148.285 1164.25 149.578C1165.62 150.306 1166.93 151.421 1168.35 151.712C1172.61 152.553 1176.94 152.925 1181.22 153.701C1190.78 155.399 1195.53 163.984 1192.8 174.655C1191.9 178.244 1190.52 181.672 1189.36 185.164C1188.39 181.058 1187.3 176.999 1186.45 172.876C1185.93 170.29 1185.77 167.606 1185.47 164.986C1183.92 167.25 1182.21 169.384 1180.87 171.809C1173.3 185.455 1165.49 198.163 1148.84 199.554C1144.81 199.893 1141.34 206.134 1137.24 209.012C1130.67 213.604 1135.12 217.824 1136.51 222.868C1137.42 226.183 1136.11 230.807 1134.6 234.186C1133.84 235.867 1130.41 236.029 1128.2 236.886C1127.72 234.703 1126.24 231.955 1126.93 230.402C1130.35 222.432 1121.27 223.612 1120.81 219.715C1119.95 212.553 1118.05 212.618 1112.03 213.749C1108.5 214.412 1103.92 207.298 1099.22 213.523C1097.97 215.156 1095.37 217.516 1095.7 218.228C1096.7 220.411 1098.62 222.351 1100.6 223.612C1101.83 224.42 1103.85 223.596 1105.44 223.967C1106.79 224.291 1108.01 225.293 1109.3 225.989C1108.76 227.12 1108.44 228.947 1107.66 229.271C1099.68 232.52 1102.38 236.821 1105.77 242.528C1112.42 253.717 1110.87 260.75 1102.21 270.241C1093.01 280.281 1084.56 290.968 1069.95 290.839C1068.34 290.822 1066.69 296.53 1065.03 299.537C1063.56 302.205 1062.06 304.873 1060.58 307.524C1059.91 304.808 1059 302.14 1058.66 299.392C1058.32 296.546 1058.55 293.636 1058.53 290.758C1056.41 291.906 1053.58 292.472 1052.36 294.363C1050.67 296.902 1048.64 301.299 1049.57 303.401C1051.49 307.783 1056.05 310.725 1057.95 315.123C1060.1 320.119 1062.99 327.556 1061.18 331.21C1058.29 336.998 1051.85 340.717 1046.61 344.808C1045.92 345.341 1043 343.175 1041.68 341.671C1039.11 338.696 1037.15 335.074 1034.57 332.1C1031.26 328.3 1027.61 324.064 1024.8 332.859C1024.68 333.199 1024.36 333.474 1024.13 333.781C1023.56 346.198 1023.76 369.577 1032.53 376.4C1044.63 385.826 1027.46 403.352 1023.94 385.163C1020.42 366.974 1014.74 335.058 1017.88 322.382C1017.49 314.509 1017.33 306.554 1007.91 316.045C1007.65 316.32 1004.41 314.137 1003.77 312.488C1002.19 308.397 1001.98 303.466 999.907 299.796C997.408 295.35 993.194 288.252 990.375 288.607C983.517 289.448 976.616 293.167 970.557 297.241C964.643 301.219 959.311 306.586 954.574 312.261C951.814 315.56 950.477 320.555 949.009 324.986C946.481 332.682 944.476 340.588 941.875 348.235C941.614 348.963 937.357 349.205 937.023 348.478C932.489 338.745 928.072 328.931 924.135 318.89C922.173 313.894 920.924 308.462 919.965 303.094C919.078 298.114 922.609 289.303 912.322 294.056C911.828 294.282 909.445 290.337 908.37 288.074C904.084 279.084 896.833 275.705 888.087 276.708C878.875 277.759 868.966 280.135 861.555 270.337C860.684 269.19 858.373 268.203 857.24 268.672C847.36 272.73 842.115 265.018 835.896 259.117C833.993 257.306 830.956 256.967 828.428 255.98C828.864 258.761 828.689 261.93 829.881 264.242C831.9 268.187 834.85 271.534 837.305 275.236C841.054 280.895 844.585 284.824 851.21 278.761C858.635 271.922 863.023 281.186 867.948 284.533C873.426 288.268 868.733 293.167 866.321 295.932C860.727 302.366 854.959 309.173 848.072 313.49C839.151 319.084 829.14 322.609 819.463 326.619C810.004 330.515 808.333 328.866 805.006 318.728C802.551 311.21 798.453 304.355 795.01 297.257C790.941 288.834 786.8 280.426 782.659 272.019C781.483 269.594 780.654 266.732 778.954 264.937C777.807 263.741 775.351 263.806 773.535 263.935C773.172 263.967 772.285 267.379 772.852 268.511C781.7 286.57 790.709 304.565 799.819 322.48C801.417 325.616 805.064 328.106 805.544 331.259C807.215 342.9 813.259 340.442 820.102 338.26C825.348 336.578 830.883 335.964 836.288 334.864C834.487 341.251 833.484 348.057 830.709 353.846C826.103 363.482 820.466 371.824 811.501 378.162C803.815 383.643 797.175 392.649 792.917 401.768C790.476 406.99 793.746 415.527 794.341 422.56C795.024 430.579 797.015 438.906 795.722 446.521C794.908 451.355 789.692 456.011 785.493 459.18C778.809 464.241 773.375 468.962 777.211 479.229C777.923 481.088 777.865 485.227 777.109 485.615C766.517 490.66 766.372 503.95 759.935 512.487C748.646 527.555 733.883 528.849 718.932 530.805C716.506 531.145 712.67 526.132 710.883 522.672C707.498 516.027 705.1 508.768 702.325 501.719C701.351 499.229 700.349 496.723 699.593 494.168C697.007 485.583 695.409 476.448 691.791 468.477C686.575 456.965 684.584 447.378 692.227 435.3C697.036 427.717 691.006 417.451 688.565 408.736C687.505 404.953 685.209 400.959 682.434 398.486C674.355 391.307 675.75 383.029 678.554 373.894C681.344 364.808 679.078 361.331 671.348 363.579C666.451 365.018 663.633 364.613 661.046 359.795C657.617 353.344 652.793 354.137 646.996 356.093C639.673 358.583 631.958 359.698 624.373 361.251C622.761 361.59 620.712 360.652 619.462 361.461C605.557 370.288 600.283 356.626 592.888 348.882C589.328 345.147 586.654 340.313 582.92 336.853C575.961 330.434 574.304 323.611 577.646 314.444C579.244 309.998 581.409 304.468 580.363 300.362C576.048 283.498 584.853 273.28 594.588 264.048C599.063 259.812 603.218 256.821 604.497 249.594C606.081 240.475 613.462 236.756 620.61 234.202C628.776 231.276 637.189 229.028 645.587 227.007C651.994 225.455 658.576 224.711 665.056 223.596C665.1 223.919 665.144 224.21 665.187 224.517C668.892 224.178 673.091 222.496 676.186 223.887C679.034 225.164 683.059 231.809 682.565 232.504C677.683 239.263 683.248 240.556 686.488 242.318C692.764 245.762 699.23 248.818 705.783 251.469C708.311 252.472 712.627 253.361 713.978 251.874C725.572 239.279 737.792 248.365 749.793 249.772C755.78 250.483 761.824 251.437 767.781 251.081C773.68 250.742 781.018 235.382 778.083 230.079C777.327 228.721 774.712 228.155 772.925 228.09C767.999 227.896 763.044 228.608 758.133 228.204C749.968 227.508 742.441 225.633 741.729 213.798C741.642 212.213 738.707 210.855 737.08 209.416C735.496 211.89 732.111 215.916 732.605 216.643C736.455 222.254 732.59 224.097 729.365 226.053C724.163 229.206 722.928 224.21 721.446 220.605C715.867 206.91 705.202 198.859 694.74 190.613C693.607 189.724 691.747 189.966 690.222 189.659C690.614 191.583 690.469 194.202 691.529 195.285C695.511 199.214 699.593 203.256 704.228 206.053C708.166 208.446 708.791 210.661 706.437 214.477C702.863 220.314 702.499 213.701 700.872 212.569C693.331 207.266 686.037 201.51 678.336 196.53C676.666 195.447 673.687 196.498 671.377 197.048C669.008 197.614 666.669 199.732 664.461 199.473C651.922 198.018 645.834 207.88 640.182 217.193C633.803 227.735 615.321 231.664 606.923 222.706C600.545 215.867 608.057 208.123 606.749 200.702C606.633 200.023 612.575 197.371 615.888 196.805C619.07 196.256 622.615 198.034 625.71 197.274C629.197 196.417 633.861 194.833 635.358 191.874C637.973 186.716 635.125 182.319 630.113 180.055C628.747 179.441 627.584 178.228 626.349 177.29C627.73 176.369 629.081 174.752 630.519 174.671C646.458 173.798 655.699 156.676 670.955 154.057C671.74 153.928 671.537 149.546 672.525 147.622C673.789 145.148 675.808 143.143 677.494 140.928C678.918 142.61 680.807 144.016 681.664 146.005C685.776 155.415 693.622 151.971 700.058 152.505C704.795 152.877 709.648 151.567 714.457 150.953C715.605 150.791 717.741 150.419 717.755 150.063C718.148 138.794 728.333 138.891 733.753 133.734C736.877 130.759 743.008 131.826 747.716 130.742C749.14 130.403 750.345 129.045 751.653 128.123C750.302 126.814 748.994 124.405 747.599 124.34C743.095 124.13 738.388 124.033 734.087 125.326C729.277 126.765 725.253 126.426 724.41 120.831C723.989 118.018 726.938 114.526 728.522 111.454C728.871 110.759 730.033 110.662 730.614 110.031C732.547 107.962 734.406 105.779 736.295 103.629C735.743 103.063 735.075 101.915 734.683 102.012C731.312 102.901 727.636 103.321 724.744 105.213C721.054 107.622 718.38 112.198 714.588 114.154C709.474 116.838 704.403 117.517 711.479 124.841C714.167 127.622 705.652 141.64 700.175 143.337C694.13 145.197 687.069 149.32 685.369 136.983C684.555 131.211 681.519 131.228 677.407 134.687C671.958 139.312 666.931 137.355 664.301 130.742C661.86 124.566 661.584 119.037 668.529 114.558C679.455 107.509 688.812 96.6926 700.305 91.6158C713.847 85.6336 728.813 82.6425 743.4 81.1712C752.016 80.2982 761.068 84.8737 769.917 87.0079C778.388 89.0451 786.873 91.0175 795.3 93.2649C796.477 93.5883 797.349 95.3668 798.366 96.4501C797.465 97.2908 796.666 98.7136 795.678 98.8429C790.418 99.6513 785.1 99.9747 779.855 100.832C778.635 101.042 776.557 102.691 776.63 103.451C776.789 105.019 778.751 107.8 778.94 107.687C784.301 104.76 790.97 112.699 795.983 104.809C797.639 102.19 801.446 100.088 804.381 99.8938C808.682 99.6351 813.026 101.43 810.542 93.4428C810.411 93.0386 814.552 90.9691 816.717 89.6918C819.536 102.594 827.353 92.5697 832.438 93.2003C839.935 94.1542 847.796 91.7128 855.453 90.4355C862.573 89.2229 869.634 86.6037 876.739 86.5228C883.597 86.442 890.44 88.8834 897.313 90.0637C899.26 90.4032 901.25 90.2092 903.227 90.2577C902.485 88.4954 901.599 86.7977 901.062 84.9545C900.437 82.8203 899.187 79.2311 899.87 78.6167C903.953 75.1082 908.297 71.438 913.092 69.6434C914.778 69.0128 920.488 74.607 920.168 75.4801C917.654 82.4647 925.079 91.5835 916.434 97.1129C915.635 97.598 915.795 99.91 915.519 101.381C916.696 101.317 918.163 101.721 918.991 101.074C921.345 99.2956 923.19 96.4339 925.718 95.1566C928.61 93.7015 932.01 93.4266 935.192 92.7476C937.4 92.2949 939.652 92.1008 941.803 91.4541C942.006 91.3733 942.064 88.2043 941.527 87.8809C939.507 86.7168 936.732 84.8414 935.134 85.5689C927.651 89.0451 925.253 86.054 926.256 77.9538C926.372 76.9514 927.651 76.143 928.377 75.2537C934.582 84.6635 937.168 72.5051 940.786 72.78C946.045 73.1842 951.073 77.5819 956.231 80.185C958.308 81.2197 960.459 82.0443 962.595 82.9659C961.272 80.476 960.11 77.8568 958.57 75.5609C957.887 74.5747 956.274 74.4938 955.33 73.6369C954.502 72.8932 954.051 71.6482 953.412 70.6297C954.4 70.0961 955.359 69.3524 956.405 69.0775C971.879 65.181 987.368 61.2683 1002.91 57.6144C1006.04 56.8868 1009.35 57.1778 1012.59 57.1617C1015.87 57.1617 1019.78 58.7784 1022.3 57.3072C1038.25 47.962 1054.48 56.5311 1070.51 55.755C1074.65 55.5448 1080.85 55.9652 1076.73 64.4535C1076.57 64.7768 1079.72 68.2368 1081.29 68.2044C1094.65 67.9296 1107.82 73.9926 1121.48 68.2044C1127.67 65.5852 1135.85 64.5343 1137.62 76.4178C1137.84 77.9376 1140.71 80.1364 1142.18 80.0071C1151.92 79.037 1161.61 77.5496 1171.3 76.143C1172.52 75.9651 1174.1 75.8034 1174.77 74.898C1176.28 72.877 1178.71 69.9667 1178.27 68.2206C1177.71 65.9894 1174.65 64.5505 1172.68 62.7881C1171.36 61.5917 1170.05 60.3791 1168.74 59.1665C1170.19 58.6168 1171.63 57.6144 1173.09 57.6305C1177.6 57.6952 1182.15 57.9377 1186.66 58.4875C1189.04 58.7946 1191.35 59.9102 1193.7 60.654C1192.19 62.1576 1190.42 63.4672 1189.23 65.2457C1188.63 66.1026 1188.87 67.9134 1189.17 69.126C1189.34 69.7727 1190.46 70.3548 1191.22 70.5165C1205.49 73.5561 1219.8 76.5795 1234.08 79.5221C1240.82 80.9125 1247.61 82.1575 1254.36 83.4348C1257.94 84.1138 1261.51 84.9546 1265.12 85.3264C1273.63 86.2157 1282.17 86.8462 1290.69 87.6061C1291.5 87.6708 1292.71 88.4792 1293.01 88.1073C1301.41 79.037 1311 87.6061 1319.95 85.8599C1327.83 84.3401 1329.99 89.3037 1330.95 97.8405C1331.74 104.324 1322.84 108.156 1328.55 114.688ZM800.691 205.196C798.526 202.221 796.622 198.939 794.123 196.385C791.45 193.636 786.859 192.246 785.536 189.044C783.124 183.224 781.119 183.062 777.937 187.509C773.346 193.911 769.757 193.41 765.747 186.571C762.928 181.769 759.485 183.612 756.739 187.347C754.414 190.516 751.668 193.475 749.953 197.015C748.733 199.521 747.875 203.337 748.776 205.649C749.343 207.185 753.542 208.123 755.736 207.557C766.996 204.582 778.126 203.677 789.227 208.236C789.59 208.381 790.055 208.252 792.772 208.252C794.022 207.767 797.349 206.49 800.691 205.196ZM836.695 191.389C838.991 191.13 841.345 191.13 843.597 190.564C845.704 190.031 847.651 188.883 849.67 187.994C848.333 185.843 847.374 182.561 845.544 181.785C842.812 180.637 839.427 180.783 836.434 181.219C833.281 181.704 830.317 183.499 827.164 184.162C818.388 186.005 816.543 190.015 821.628 197.969C823.706 201.187 826.626 204.194 829.765 205.956C834.283 208.495 834.153 209.74 830.433 213.345C824.229 219.376 824.839 222.238 832.22 225.342C834.894 226.457 837.799 226.91 839.79 227.427C848.406 227.621 850.498 225.018 847.956 216.724C846.052 210.597 842.943 204.922 840.357 199.069C839.165 196.482 837.916 193.943 836.695 191.389ZM1202.29 458.663C1198.92 453.635 1196.73 447.669 1193.6 442.398C1191.52 438.89 1188.76 435.898 1186.31 432.665C1186.24 436.998 1186.73 441.46 1185.97 445.648C1185.07 450.547 1185.57 458.307 1178.68 457.337C1174.15 456.691 1169.45 452.972 1165.94 449.334C1164.3 447.62 1165.37 442.818 1164.85 439.504C1164.63 438.016 1163.53 435.543 1162.76 435.51C1156.41 435.252 1148.79 433.085 1144 436.157C1137.98 440.021 1134.64 449.35 1125.62 442.754C1125.31 442.511 1123.31 445.017 1122.17 446.311C1112.7 456.901 1104.87 469.156 1089.12 470.547C1079.11 471.436 1077.52 479.504 1077.48 491.096C1077.45 500.684 1082.09 507.297 1084.51 515.284C1085.37 518.113 1085.89 521.832 1084.93 524.402C1082.32 531.533 1084.34 536.431 1090.92 535.17C1098.93 533.651 1108.81 532.939 1113.99 527.377C1120.87 520.005 1128.61 520.118 1136.15 517.774C1145.58 514.863 1151.8 518.469 1157.93 528.606C1158.59 529.706 1161.13 530.886 1161.33 530.611C1169.9 519.504 1174.57 531.759 1176.47 535.882C1181.41 546.601 1187.11 552.26 1196.04 548.752C1211.44 550.821 1216.37 540.748 1221.61 529.835C1230.48 511.355 1230.06 496.561 1218.48 480.183C1213.3 472.826 1207.35 466.117 1202.29 458.663ZM1147.94 384.694C1147.27 384.516 1146.25 386.02 1145.38 386.748C1148.4 391.064 1150.75 396.432 1154.59 399.423C1161.53 404.856 1173.62 401.703 1175.28 416.594C1175.6 419.553 1187.02 424.177 1187.47 423.465C1195.04 411.501 1200.97 414.945 1207.2 424.629C1208.26 426.295 1210.63 427.216 1212.58 427.766C1213.59 428.073 1214.97 426.86 1216.11 426.375C1215.63 424.371 1215.69 423.207 1215.18 422.673C1206.93 413.926 1199.79 402.495 1190 397.321C1177.1 390.499 1162.09 388.542 1147.94 384.694ZM1186.6 193.2C1182.94 194.8 1179.28 200.556 1178.42 205.148C1174.48 225.859 1171.26 229.271 1153.12 231.453C1148.6 232.019 1144.16 235.35 1140.19 238.276C1139.04 239.133 1138.84 243.515 1139.77 245.277C1140.52 246.684 1143.9 247.541 1145.62 246.926C1151.22 244.938 1156.45 241.752 1162.04 239.748C1180.18 233.248 1183.4 228.381 1182.94 208.317C1182.89 206.619 1185.06 203.951 1186.73 203.289C1190.17 201.93 1193.98 201.688 1197.61 200.815C1198.64 200.556 1199.54 199.651 1200.47 199.053C1200.02 197.921 1199.85 196.627 1199.4 196.466C1195.08 195.075 1189.98 191.745 1186.6 193.2ZM1073.7 407.378C1053.11 410.757 1047.67 393.069 1047.67 393.069C1047.67 393.069 1036.8 393.069 1032.54 404.371C1031.83 406.246 1033.75 412.762 1051.3 414.783C1068.85 416.804 1080.36 414.783 1080.36 414.783C1080.36 414.783 1094.29 403.999 1073.7 407.378ZM1026.89 415.688C1021.24 413.231 1021.03 414.104 1022.24 407.378C1023.44 400.652 1016.99 393.069 1016.99 393.069C998.933 396.19 1019.83 419.504 1026.9 425.567C1033.98 431.63 1046.47 421.525 1041.64 421.525C1036.8 421.525 1032.54 418.162 1026.89 415.688ZM1133.03 415.688C1133.03 415.688 1128.8 400.636 1118.5 389.189C1108.2 377.742 1105.78 410.288 1105.78 410.288C1108.2 424.662 1133.03 415.688 1133.03 415.688Z" fill="#DEDEDE"></path> <ellipse cx="838.5" cy="166" rx="3.5" ry="4" fill="black"></ellipse> <circle cx="849.5" cy="173.5" r="3.5" fill="black"></circle> <circle cx="862" cy="149" r="4" fill="black"></circle> <circle cx="787.5" cy="184.5" r="3.5" fill="black"></circle> <circle cx="639" cy="197" r="4" fill="black"></circle> <circle cx="651.5" cy="172.5" r="3.5" fill="black"></circle> <ellipse cx="701" cy="209.5" rx="4" ry="3.5" fill="black"></ellipse> <ellipse cx="738" cy="110.5" rx="4" ry="3.5" fill="black"></ellipse> <circle cx="701" cy="135" r="4" fill="black"></circle> <circle cx="691" cy="140" r="4" fill="black"></circle> <ellipse cx="1100" cy="261.5" rx="4" ry="3.5" fill="black"></ellipse> <ellipse cx="1187" cy="461.5" rx="4" ry="3.5" fill="black"></ellipse> <ellipse cx="1162" cy="399.5" rx="4" ry="3.5" fill="black"></ellipse> <circle cx="368.5" cy="188.5" r="3.5" fill="black"></circle> <circle cx="405.5" cy="163.5" r="3.5" fill="black"></circle> <circle cx="157.5" cy="163.5" r="3.5" fill="black"></circle> <circle cx="170" cy="176" r="4" fill="black"></circle> <circle cx="219.5" cy="250.5" r="3.5" fill="black"></circle> </svg> 